<?xml version="1.0" encoding="UTF-8" standalone="no"?>
<!-- Uploaded to: SVG Repo, www.svgrepo.com, Generator: SVG Repo Mixer Tools -->

<svg
   fill="#000000"
   version="1.1"
   id="Capa_1"
   width="800px"
   height="800px"
   viewBox="0 0 305.002 305.002"
   xml:space="preserve"
   sodipodi:docname="cancel-button.svg"
   inkscape:version="1.4.2 (ebf0e940d0, 2025-05-08)"
   xmlns:inkscape="http://www.inkscape.org/namespaces/inkscape"
   xmlns:sodipodi="http://sodipodi.sourceforge.net/DTD/sodipodi-0.dtd"
   xmlns="http://www.w3.org/2000/svg"
   xmlns:svg="http://www.w3.org/2000/svg"><defs
   id="defs3" /><sodipodi:namedview
   id="namedview3"
   pagecolor="#ffffff"
   bordercolor="#000000"
   borderopacity="0.25"
   inkscape:showpageshadow="2"
   inkscape:pageopacity="0.0"
   inkscape:pagecheckerboard="true"
   inkscape:deskcolor="#d1d1d1"
   inkscape:zoom="0.97375"
   inkscape:cx="399.48652"
   inkscape:cy="400"
   inkscape:window-width="1920"
   inkscape:window-height="1005"
   inkscape:window-x="0"
   inkscape:window-y="0"
   inkscape:window-maximized="1"
   inkscape:current-layer="Capa_1" />
<g
   id="g3"
   style="fill:#ffffff">
	<g
   id="g2"
   style="fill:#ffffff">
		<path
   d="M152.502,0.001C68.412,0.001,0,68.412,0,152.501s68.412,152.5,152.502,152.5c84.089,0,152.5-68.411,152.5-152.5    S236.591,0.001,152.502,0.001z M152.502,280.001C82.197,280.001,25,222.806,25,152.501c0-70.304,57.197-127.5,127.502-127.5    c70.304,0,127.5,57.196,127.5,127.5C280.002,222.806,222.806,280.001,152.502,280.001z"
   id="path1"
   style="fill:#ffffff" />
		<path
   d="M170.18,152.5l43.13-43.129c4.882-4.882,4.882-12.796,0-17.678c-4.881-4.882-12.796-4.881-17.678,0l-43.13,43.13    l-43.131-43.131c-4.882-4.881-12.796-4.881-17.678,0c-4.881,4.882-4.881,12.796,0,17.678l43.13,43.13l-43.131,43.131    c-4.881,4.882-4.881,12.796,0,17.679c2.441,2.44,5.64,3.66,8.839,3.66c3.199,0,6.398-1.221,8.839-3.66l43.131-43.132    l43.131,43.132c2.441,2.439,5.64,3.66,8.839,3.66s6.398-1.221,8.839-3.66c4.882-4.883,4.882-12.797,0-17.679L170.18,152.5z"
   id="path2"
   style="fill:#ffffff" />
	</g>
</g>
</svg>
